<svg width="16" height="23" viewBox="0 0 16 23" fill="none" xmlns="http://www.w3.org/2000/svg">
<path d="M14.7586 7.9613H6.59049C6.4922 8.11857 6.40373 8.29549 6.3251 8.49208C6.24647 8.68866 6.19732 8.89507 6.17766 9.11132H13.4316L14.3163 10.1729C14.3163 10.1729 14.4047 10.3007 14.5816 10.5562C14.7586 10.7921 14.9552 11.1263 15.1714 11.5588C15.3876 11.9716 15.5842 12.4729 15.7611 13.0627C15.9381 13.6524 16.0167 14.2913 15.9971 14.9794C15.9971 15.6674 15.8594 16.3948 15.5842 17.1614C15.3287 17.9281 14.8667 18.7046 14.1983 19.491L13.2842 20.523L11.1021 20.582V23H5.94176V20.641L1.25323 20.7884L1.10579 15.5691L9.80464 15.4217C9.88328 15.0088 9.89311 14.6255 9.83413 14.2717H2.16734L1.28271 13.0037C0.653643 12.0994 0.260474 11.2344 0.103207 10.4088C-0.0344023 9.58312 -0.0344023 8.81644 0.103207 8.10874C0.240816 7.40103 0.476717 6.76213 0.81091 6.19204C1.1451 5.62194 1.48913 5.13048 1.84298 4.71766C2.19683 4.30483 2.50154 3.99029 2.7571 3.77405C3.03231 3.53815 3.16992 3.4202 3.16992 3.4202L4.05455 2.74198H5.94176V0.471436H11.1021V2.74198H14.7586V7.9613Z" fill="#68FFAE"/>
</svg>
